<?xml version="1.0" encoding="utf-8"?>
<!-- Generator: Adobe Illustrator 21.0.0, SVG Export Plug-In . SVG Version: 6.00 Build 0)  -->
<svg version="1.1" id="Layer_1" xmlns="http://www.w3.org/2000/svg" xmlns:xlink="http://www.w3.org/1999/xlink" x="0px" y="0px"
	 viewBox="0 0 400 400" style="enable-background:new 0 0 400 400;" xml:space="preserve">
<style type="text/css">
	.st0{fill:none;stroke:#000000;stroke-linecap:round;stroke-miterlimit:10;}
	.st1{fill:#ffffff;stroke:#000000;stroke-linecap:round;stroke-miterlimit:10;}
</style>
<g id="Triangle">
	<path d="M188.4,45.6l-44.6,77.2l-1.3,2.3l-96.4,167h284.6L188.4,45.6z M189,81.4l54.7,101.4H134.4L189,81.4z M147.3,214.5
		l-8.5-14.4l16.7-0.2L147.3,214.5z M241.3,200l-20.9,36.2L199.5,200H241.3z M139.1,226.5c-6,22.2-21.1,37.8-33.7,34.8
		c-3.8-0.9-6.9-3.4-9.3-7l23.6-36.3l20.2,5.7C139.6,224.6,139.4,225.6,139.1,226.5z M219,266.5l38.4-66.5l39.8,69h-76.7L219,266.5z"
		/>
	<path class="st0" d="M188.4,45.6l-44.6,77.2l-1.3,2.3l-96.4,167h284.6L188.4,45.6z M189,81.4l54.7,101.4H134.4L189,81.4z
		 M147.3,214.5l-8.5-14.4l16.7-0.2L147.3,214.5z M241.3,200l-20.9,36.2L199.5,200H241.3z M139.1,226.5c-6,22.2-21.1,37.8-33.7,34.8
		c-3.8-0.9-6.9-3.4-9.3-7l23.6-36.3l20.2,5.7C139.6,224.6,139.4,225.6,139.1,226.5z M219,266.5l38.4-66.5l39.8,69h-76.7L219,266.5z"
		/>
</g>
<polygon id="atop" class="st1" points="243.7,182.8 134.4,182.8 189,81.4 "/>
<polygon id="mleft" class="st1" points="220.4,269 140.7,269 180.6,200 219,266.5 "/>
<polygon id="mright" class="st1" points="297.2,269 220.4,269 219,266.5 257.3,200 "/>
<polygon id="mbtm" class="st1" points="220.4,269 217.5,269 219,266.5 "/>
<polygon id="mtop" class="st1" points="241.3,200 220.4,236.2 199.5,200 "/>
<path id="jhollow" class="st1" d="M139.8,223.6c-0.2,1-0.4,1.9-0.7,2.9c-6,22.2-21.1,37.8-33.7,34.8c-3.8-0.9-6.9-3.4-9.3-7
	l23.6-36.3L139.8,223.6z"/>
<polygon id="jdot" class="st1" points="155.5,200 147.3,214.5 138.8,200.2 "/>
</svg>
